<mxfile host="app.diagrams.net" modified="2023-12-06T01:35:53.178Z" agent="Mozilla/5.0 (Windows NT 10.0; Win64; x64) AppleWebKit/537.36 (KHTML, like Gecko) Chrome/119.0.0.0 Safari/537.36" etag="GUlAsd0ymSq_cSZNBvLp" version="22.1.5" type="github">
  <diagram name="Page-1" id="4fc8d65c-f3f6-feb3-4d1c-02f59d9f9886">
    <mxGraphModel dx="1050" dy="580" grid="1" gridSize="10" guides="1" tooltips="1" connect="1" arrows="1" fold="1" page="1" pageScale="1" pageWidth="826" pageHeight="1169" background="none" math="0" shadow="0">
      <root>
        <mxCell id="0" />
        <mxCell id="1" parent="0" />
        <mxCell id="-k-oL2ghgNu8YKMMwTD9-267" value="" style="group" vertex="1" connectable="0" parent="1">
          <mxGeometry x="200" y="40" width="480" height="60" as="geometry" />
        </mxCell>
        <mxCell id="-k-oL2ghgNu8YKMMwTD9-265" value="Problem statement" style="rounded=0;whiteSpace=wrap;html=1;fontSize=16;" vertex="1" parent="-k-oL2ghgNu8YKMMwTD9-267">
          <mxGeometry width="120" height="60" as="geometry" />
        </mxCell>
        <mxCell id="-k-oL2ghgNu8YKMMwTD9-266" value="PW2 Line, the 5K hoist has a terrible ergo score." style="rounded=0;whiteSpace=wrap;html=1;fontSize=16;" vertex="1" parent="-k-oL2ghgNu8YKMMwTD9-267">
          <mxGeometry x="120" width="360" height="60" as="geometry" />
        </mxCell>
        <mxCell id="-k-oL2ghgNu8YKMMwTD9-268" value="" style="group" vertex="1" connectable="0" parent="1">
          <mxGeometry x="200" y="110" width="480" height="60" as="geometry" />
        </mxCell>
        <mxCell id="-k-oL2ghgNu8YKMMwTD9-269" value="Why" style="rounded=0;whiteSpace=wrap;html=1;fontSize=16;" vertex="1" parent="-k-oL2ghgNu8YKMMwTD9-268">
          <mxGeometry width="120" height="60" as="geometry" />
        </mxCell>
        <mxCell id="-k-oL2ghgNu8YKMMwTD9-270" value="&lt;p style=&quot;line-height:12.6pt;mso-line-height-rule:exactly&quot; class=&quot;MsoNormal&quot;&gt;Associates shoulders and wrists are getting injured.&lt;/p&gt;" style="rounded=0;whiteSpace=wrap;html=1;fontSize=16;" vertex="1" parent="-k-oL2ghgNu8YKMMwTD9-268">
          <mxGeometry x="120" width="360" height="60" as="geometry" />
        </mxCell>
        <mxCell id="-k-oL2ghgNu8YKMMwTD9-283" value="" style="group" vertex="1" connectable="0" parent="1">
          <mxGeometry x="200" y="180" width="480" height="60" as="geometry" />
        </mxCell>
        <mxCell id="-k-oL2ghgNu8YKMMwTD9-284" value="Why" style="rounded=0;whiteSpace=wrap;html=1;fontSize=16;" vertex="1" parent="-k-oL2ghgNu8YKMMwTD9-283">
          <mxGeometry width="120" height="60" as="geometry" />
        </mxCell>
        <mxCell id="-k-oL2ghgNu8YKMMwTD9-285" value="Hoist is difficult to move.&amp;nbsp;" style="rounded=0;whiteSpace=wrap;html=1;fontSize=16;" vertex="1" parent="-k-oL2ghgNu8YKMMwTD9-283">
          <mxGeometry x="120" width="360" height="60" as="geometry" />
        </mxCell>
        <mxCell id="-k-oL2ghgNu8YKMMwTD9-286" value="" style="group" vertex="1" connectable="0" parent="1">
          <mxGeometry x="20" y="250" width="480" height="60" as="geometry" />
        </mxCell>
        <mxCell id="-k-oL2ghgNu8YKMMwTD9-287" value="Why" style="rounded=0;whiteSpace=wrap;html=1;fontSize=16;" vertex="1" parent="-k-oL2ghgNu8YKMMwTD9-286">
          <mxGeometry width="120" height="60" as="geometry" />
        </mxCell>
        <mxCell id="-k-oL2ghgNu8YKMMwTD9-288" value="Existing tracks hinder movement" style="rounded=0;whiteSpace=wrap;html=1;fontSize=16;" vertex="1" parent="-k-oL2ghgNu8YKMMwTD9-286">
          <mxGeometry x="120" width="360" height="60" as="geometry" />
        </mxCell>
        <mxCell id="-k-oL2ghgNu8YKMMwTD9-289" value="" style="group" vertex="1" connectable="0" parent="1">
          <mxGeometry x="520" y="250" width="480" height="60" as="geometry" />
        </mxCell>
        <mxCell id="-k-oL2ghgNu8YKMMwTD9-290" value="Why" style="rounded=0;whiteSpace=wrap;html=1;fontSize=16;" vertex="1" parent="-k-oL2ghgNu8YKMMwTD9-289">
          <mxGeometry width="120" height="60" as="geometry" />
        </mxCell>
        <mxCell id="-k-oL2ghgNu8YKMMwTD9-291" value="" style="rounded=0;whiteSpace=wrap;html=1;fontSize=16;" vertex="1" parent="-k-oL2ghgNu8YKMMwTD9-289">
          <mxGeometry x="120" width="360" height="60" as="geometry" />
        </mxCell>
      </root>
    </mxGraphModel>
  </diagram>
</mxfile>
